<svg xmlns="http://www.w3.org/2000/svg" shape-rendering="geometricPrecision" text-rendering="geometricPrecision" image-rendering="optimizeQuality" fill-rule="evenodd" clip-rule="evenodd" viewBox="0 0 512 414.888"><g fill-rule="nonzero"><path fill="#FFCB00" d="M80.056 0h351.888c21.907 0 41.859 9.115 56.362 23.618C502.912 38.224 512 58.366 512 80.229v254.43c0 21.815-9.169 41.902-23.754 56.492-14.579 14.579-34.596 23.737-56.302 23.737H80.056c-21.75 0-41.826-9.076-56.427-23.677C9.115 376.702 0 356.685 0 334.659V80.229c0-22.07 9.028-42.135 23.569-56.676C38.089 9.028 58.094 0 80.056 0z"/><path fill="#262626" d="M431.944 33.341H80.056c-12.999 0-24.781 5.285-33.282 13.786-8.495 8.495-13.77 20.218-13.77 33.102v254.43c0 12.809 5.334 24.487 13.83 32.977 8.572 8.572 20.397 13.911 33.222 13.911h351.888c12.749 0 24.52-5.394 33.097-13.971 8.566-8.571 13.955-20.282 13.955-32.917V80.229c0-12.71-5.329-24.47-13.895-33.037-8.507-8.506-20.239-13.851-33.157-13.851z"/><path fill="#FD5" d="M119.888 256.787v-30.266l57.762-90.854h27.469v40.392h-15.692l-31.12 49.343v1.119h85.232v30.266H119.888zm69.805 22.434v-31.679l.853-13.188v-98.687h36.448v143.554h-37.301zm71.766 0V135.667h38.98v58.056h1.971l43.162-58.056h45.427l-48.518 63.944 49.637 79.61h-46.546l-32.239-53.819-12.894 16.812v37.007h-38.98z"/></g></svg>